<svg height="512pt" viewBox="-32 0 512 512" width="512pt" xmlns="http://www.w3.org/2000/svg"><path d="m432 512h8c4.417969 0 8-3.582031 8-8v-24h-24v24c0 4.417969 3.582031 8 8 8zm0 0" fill="#827189"/><path d="m8 512h8c4.417969 0 8-3.582031 8-8v-24h-24v24c0 4.417969 3.582031 8 8 8zm0 0" fill="#827189"/><path d="m440 0h-432c-4.417969 0-8 3.582031-8 8v472c0 4.417969 3.582031 8 8 8h432c4.417969 0 8-3.582031 8-8v-472c0-4.417969-3.582031-8-8-8zm0 0" fill="#d0cad3"/><path d="m416 24h-192c-4.417969 0-8 3.582031-8 8v424c0 4.417969 3.582031 8 8 8h192c4.417969 0 8-3.582031 8-8v-424c0-4.417969-3.582031-8-8-8zm0 0" fill="#827189"/><path d="m416 384h-192c-4.417969 0-8 3.582031-8 8v64c0 4.417969 3.582031 8 8 8h192c4.417969 0 8-3.582031 8-8v-64c0-4.417969-3.582031-8-8-8zm0 0" fill="#9689d0"/><path d="m264 448c-4.417969 0-8-3.582031-8-8v-56h-32c-4.417969 0-8 3.582031-8 8v64c0 4.417969 3.582031 8 8 8h192c4.417969 0 8-3.582031 8-8v-8zm0 0" fill="#7c6cc4"/><path d="m336 416h-32c-4.417969 0-8-3.582031-8-8s3.582031-8 8-8h32c4.417969 0 8 3.582031 8 8s-3.582031 8-8 8zm0 0" fill="#cbc4e8"/><path d="m416 304h-192c-4.417969 0-8 3.582031-8 8v64c0 4.417969 3.582031 8 8 8h192c4.417969 0 8-3.582031 8-8v-64c0-4.417969-3.582031-8-8-8zm0 0" fill="#9689d0"/><path d="m256 360v-56h-32c-4.417969 0-8 3.582031-8 8v64c0 4.417969 3.582031 8 8 8h192c4.417969 0 8-3.582031 8-8v-8h-160c-4.417969 0-8-3.582031-8-8zm0 0" fill="#7c6cc4"/><path d="m336 336h-32c-4.417969 0-8-3.582031-8-8s3.582031-8 8-8h32c4.417969 0 8 3.582031 8 8s-3.582031 8-8 8zm0 0" fill="#cbc4e8"/><path d="m312 80h-32v-16h24v-40h16v48c0 4.417969-3.582031 8-8 8zm0 0" fill="#ffcc58"/><path d="m304 64h40v16h-40zm0 0" fill="#ffcc58"/><path d="m336 64c0 13.253906-10.746094 24-24 24s-24-10.746094-24-24h-40v184h120c4.417969 0 8-3.582031 8-8v-176zm0 0" fill="#efedf0"/><path d="m376 64 34.929688 55.886719c2.640624 4.226562.816406 9.816406-3.8125 11.667969l-31.117188 12.445312zm0 0" fill="#d0cad3"/><path d="m264 80h-32v-16h24v-40h16v48c0 4.417969-3.582031 8-8 8zm0 0" fill="#ffd982"/><path d="m288 80h-24c-4.417969 0-8-3.582031-8-8s3.582031-8 8-8h24c4.417969 0 8 3.582031 8 8s-3.582031 8-8 8zm0 0" fill="#ffd982"/><path d="m288 64c0 13.253906-10.746094 24-24 24s-24-10.746094-24-24h-40v184h120c4.417969 0 8-3.582031 8-8v-176zm0 0" fill="#f4b7d3"/><path d="m240 64h-40v184h48v-166.117188c-4.910156-4.394531-8-10.777343-8-17.882812zm0 0" fill="#ee93bd"/><path d="m328 64 34.929688 55.886719c2.640624 4.226562.816406 9.816406-3.8125 11.667969l-31.117188 12.445312zm0 0" fill="#e96fa7"/><path d="m224 0h-216c-4.417969 0-8 3.582031-8 8v472c0 4.417969 3.582031 8 8 8h216c4.417969 0 8-3.582031 8-8v-472c0-4.417969-3.582031-8-8-8zm0 0" fill="#efedf0"/><path d="m32 32h144v424h-144zm0 0" fill="#93d5df"/><path d="m64 432v-400h-32v424h144v-24zm0 0" fill="#6fc7d4"/><path d="m176 464h-144c-4.417969 0-8-3.582031-8-8v-424c0-4.417969 3.582031-8 8-8h144c4.417969 0 8 3.582031 8 8v424c0 4.417969-3.582031 8-8 8zm-136-16h128v-408h-128zm0 0" fill="#c1b8c4"/><path d="m208 280c-4.417969 0-8-3.582031-8-8v-48c0-4.417969 3.582031-8 8-8s8 3.582031 8 8v48c0 4.417969-3.582031 8-8 8zm0 0" fill="#928398"/></svg>