<svg id="Layer_1" height="512" viewBox="0 0 512 512" width="512" xmlns="http://www.w3.org/2000/svg" data-name="Layer 1"><path d="m362.98 285.25v161.14a4 4 0 0 1 -4 4h-207.73a4 4 0 0 1 -4-4v-426.39a4 4 0 0 1 4-4h207.73a4 4 0 0 1 4 4z" fill="#f8ec7d"/><path d="m341.8 41.19v382.22a2 2 0 0 1 -2 2h-169.37a1.993 1.993 0 0 1 -2-2v-382.22a1.993 1.993 0 0 1 2-2h169.37a2 2 0 0 1 2 2z" fill="#6fe3ff"/><path d="m107.89 291.24a6 6 0 0 1 -.009-12l39.29-.06h.009a6 6 0 0 1 .009 12l-39.29.06z" fill="#e48e66"/><path d="m404.14 291.29h-.006l-41.12-.04a6 6 0 0 1 .006-12h.006l41.12.04a6 6 0 0 1 -.006 12z" fill="#e48e66"/><path d="m227.689 173.48a6 6 0 0 1 -4.287-10.2l54.26-55.43a6 6 0 0 1 8.576 8.394l-54.26 55.431a5.987 5.987 0 0 1 -4.289 1.805z" fill="#2561a1"/><path d="m256 187.63a6 6 0 0 1 -4.242-10.243l28.31-28.3a6 6 0 1 1 8.484 8.486l-28.31 28.3a5.983 5.983 0 0 1 -4.242 1.757z" fill="#2561a1"/><path d="m400.56 502h-289.12c-5.294 0-9.6-4.67-9.6-10.41v-231.65a6 6 0 0 1 12 0v230.06h284.32v-230.06a6 6 0 0 1 12 0v231.65c0 5.74-4.306 10.41-9.6 10.41z" fill="#6fe3ff"/></svg>